<?xml version="1.0" encoding="iso-8859-1"?>
<!-- Uploaded to: SVG Repo, www.svgrepo.com, Generator: SVG Repo Mixer Tools -->
<svg fill="#000000" height="800px" width="800px" version="1.1" id="Layer_1" xmlns="http://www.w3.org/2000/svg" xmlns:xlink="http://www.w3.org/1999/xlink" 
	 viewBox="0 0 512 512" xml:space="preserve">
<g>
	<g>
		<path d="M341.967,236.685l-3.72-3.793l-58.533-59.745l-3.522-3.584l-11.506-11.746c-7.242,3.386-18.037,7.493-32.908,11.903
			c-20.619,6.124-39.304,9.949-42.69,10.231c-0.408,0.031-1.808,0.042-2.926,0.063c-11.38,0.157-41.603,0.585-74.898,12.478
			c-42.7,15.258-74.448,43.202-94.388,83.07c-20.943,41.896-22.426,87.95-4.264,133.179c13.491,33.608,33.128,54.979,33.953,55.868
			l0.826,0.826c0.888,0.826,22.259,20.462,55.868,33.953C124.213,507.799,145.344,512,166.161,512
			c24.109,0,47.789-5.633,70.279-16.877c39.868-19.939,67.812-51.688,83.07-94.388c11.893-33.295,12.321-63.517,12.478-74.898
			c0.021-1.118,0.031-2.519,0.063-2.884c0.282-3.428,4.107-22.113,10.231-42.732c4.159-14.045,8.057-24.443,11.328-31.654
			L341.967,236.685z M80.384,388.508l-18.476-18.476l18.476-18.476l18.476,18.476L80.384,388.508z M87.564,332.306L69.088,313.84
			l18.476-18.476l18.476,18.476L87.564,332.306z M136.837,357.711l-18.476-18.476l18.476-18.466l18.476,18.466L136.837,357.711z"/>
	</g>
</g>
<g>
	<g>
		<path d="M496.278,48.338c-5.727-5.727-12.509-10.001-19.971-12.645c-2.644-7.462-6.918-14.244-12.645-19.971
			c-20.974-20.963-55.084-20.963-76.058,0c-16.104,16.104-19.898,40.464-10.858,60.393l-74.866,74.866l10.973,11.203l10.973,11.192
			l14.651,14.944l10.962,11.203l10.973,11.203l75.473-75.473c19.929,9.04,44.289,5.246,60.393-10.858
			C517.241,103.422,517.241,69.312,496.278,48.338z"/>
	</g>
</g>
</svg>